<svg width="25" height="20" viewBox="0 0 25 20" fill="none" xmlns="http://www.w3.org/2000/svg">
<path d="M12.4998 13.9985C14.7081 13.9985 16.4983 12.2083 16.4983 9.99996C16.4983 7.79165 14.7081 6.00146 12.4998 6.00146C10.2915 6.00146 8.50134 7.79165 8.50134 9.99996C8.50134 12.2083 10.2915 13.9985 12.4998 13.9985Z" fill="white"/>
<path d="M23.7668 7.42008C22.2164 4.89501 18.6897 0.658569 12.5 0.658569C6.31027 0.658569 2.78358 4.89501 1.23316 7.42008C0.255614 9.00119 0.255614 10.999 1.23316 12.5802C2.78358 15.1052 6.31027 19.3417 12.5 19.3417C18.6897 19.3417 22.2164 15.1052 23.7668 12.5802C24.7443 10.999 24.7443 9.00119 23.7668 7.42008ZM12.5 15.9979C9.18752 15.9979 6.5022 13.3126 6.5022 10.0001C6.5022 6.68764 9.18752 4.00233 12.5 4.00233C15.8124 4.00233 18.4978 6.68764 18.4978 10.0001C18.4944 13.3112 15.8111 15.9945 12.5 15.9979Z" fill="white"/>
</svg>
