<svg width="18" height="18" viewBox="0 0 18 18" fill="none" xmlns="http://www.w3.org/2000/svg">
<g clip-path="url(#clip0_42_626)">
<path d="M0.995151 9.30021L3.66515 11.2502L2.65115 14.3905C2.48728 14.8775 2.48521 15.4045 2.64523 15.8928C2.80526 16.3811 3.11881 16.8046 3.53915 17.1002C3.95229 17.4053 4.45295 17.5687 4.96652 17.5662C5.48009 17.5636 5.97908 17.3952 6.38915 17.086L8.9999 15.1645L11.6114 17.0837C12.0238 17.3871 12.5217 17.5518 13.0337 17.5543C13.5456 17.5568 14.0451 17.3969 14.4605 17.0976C14.8758 16.7983 15.1855 16.375 15.3451 15.8886C15.5047 15.4021 15.5059 14.8776 15.3487 14.3905L14.3347 11.2502L17.0047 9.30021C17.4165 8.99909 17.7227 8.57552 17.8794 8.09C18.0361 7.60448 18.0354 7.08185 17.8774 6.59675C17.7194 6.11165 17.4121 5.6889 16.9994 5.38889C16.5868 5.08887 16.0898 4.92694 15.5797 4.92621H12.2999L11.3047 1.82421C11.1481 1.33593 10.8406 0.90997 10.4264 0.607759C10.0122 0.305547 9.51265 0.1427 8.9999 0.1427C8.48715 0.1427 7.98765 0.305547 7.57342 0.607759C7.1592 0.90997 6.85166 1.33593 6.69515 1.82421L5.6999 4.92621H2.42315C1.91296 4.92694 1.41604 5.08887 1.00339 5.38889C0.590727 5.6889 0.283431 6.11165 0.125392 6.59675C-0.0326479 7.08185 -0.0333474 7.60448 0.123393 8.09C0.280133 8.57552 0.586296 8.99909 0.99815 9.30021H0.995151Z" fill="#8FFF00"/>
</g>
<defs>
<clipPath id="clip0_42_626">
<rect width="18" height="18" fill="white"/>
</clipPath>
</defs>
</svg>
