<svg width="11" height="10" viewBox="0 0 11 10" fill="none" xmlns="http://www.w3.org/2000/svg">
<path fill-rule="evenodd" clip-rule="evenodd" d="M9.6982 1.15796C9.90881 1.31888 10.0469 1.55684 10.0822 1.81954C10.1174 2.08225 10.0469 2.3482 9.8862 2.55896L4.9122 9.07996C4.82122 9.19895 4.70467 9.296 4.57116 9.36391C4.43765 9.43183 4.29059 9.46888 4.14084 9.47233C3.99108 9.47579 3.84247 9.44556 3.70597 9.38388C3.56947 9.32219 3.44857 9.23063 3.3522 9.11596L0.840196 6.12496C0.748833 6.02549 0.678565 5.90855 0.63363 5.78119C0.588695 5.65382 0.570026 5.51868 0.578748 5.3839C0.587469 5.24913 0.623401 5.11751 0.684376 4.997C0.745352 4.87649 0.830106 4.76958 0.933527 4.68272C1.03695 4.59586 1.15689 4.53085 1.28612 4.49161C1.41536 4.45238 1.5512 4.43972 1.68545 4.45441C1.81971 4.46911 1.9496 4.51084 2.06728 4.57711C2.18497 4.64337 2.28801 4.73278 2.3702 4.83996L4.0802 6.87396L8.2972 1.34696C8.45813 1.13635 8.69608 0.998241 8.95879 0.962989C9.22149 0.927737 9.48744 0.998222 9.6982 1.15896V1.15796Z" fill="white"/>
</svg>
