<svg width="15" height="15" viewBox="0 0 15 15" fill="none" xmlns="http://www.w3.org/2000/svg">
<g clip-path="url(#clip0_35_829)">
<path d="M11.875 2.50018H3.125C2.2965 2.50118 1.50222 2.83073 0.916387 3.41657C0.330551 4.00241 0.000992411 4.79669 0 5.62518L0 9.37518C0.000992411 10.2037 0.330551 10.998 0.916387 11.5838C1.50222 12.1696 2.2965 12.4992 3.125 12.5002H11.875C12.7035 12.4992 13.4978 12.1696 14.0836 11.5838C14.6694 10.998 14.999 10.2037 15 9.37518V5.62518C14.999 4.79669 14.6694 4.00241 14.0836 3.41657C13.4978 2.83073 12.7035 2.50118 11.875 2.50018ZM2.5 10.6252C2.37639 10.6252 2.25555 10.5885 2.15277 10.5199C2.04999 10.4512 1.96988 10.3536 1.92258 10.2394C1.87527 10.1252 1.86289 9.99949 1.88701 9.87825C1.91112 9.75701 1.97065 9.64565 2.05806 9.55824C2.14547 9.47083 2.25683 9.41131 2.37807 9.38719C2.49931 9.36308 2.62497 9.37545 2.73918 9.42276C2.85338 9.47006 2.95099 9.55017 3.01967 9.65295C3.08834 9.75573 3.125 9.87657 3.125 10.0002C3.125 10.1659 3.05915 10.3249 2.94194 10.4421C2.82473 10.5593 2.66576 10.6252 2.5 10.6252ZM2.5 5.62518C2.37639 5.62518 2.25555 5.58853 2.15277 5.51985C2.04999 5.45118 1.96988 5.35356 1.92258 5.23936C1.87527 5.12516 1.86289 4.99949 1.88701 4.87825C1.91112 4.75701 1.97065 4.64565 2.05806 4.55824C2.14547 4.47083 2.25683 4.41131 2.37807 4.38719C2.49931 4.36308 2.62497 4.37545 2.73918 4.42276C2.85338 4.47006 2.95099 4.55017 3.01967 4.65295C3.08834 4.75573 3.125 4.87657 3.125 5.00018C3.125 5.16594 3.05915 5.32491 2.94194 5.44212C2.82473 5.55933 2.66576 5.62518 2.5 5.62518ZM7.5 10.0002C7.00555 10.0002 6.5222 9.85356 6.11107 9.57886C5.69995 9.30415 5.37952 8.91371 5.1903 8.45689C5.00108 8.00008 4.95157 7.49741 5.04804 7.01246C5.1445 6.5275 5.3826 6.08205 5.73223 5.73242C6.08186 5.38278 6.52732 5.14468 7.01227 5.04822C7.49723 4.95176 7.99989 5.00127 8.45671 5.19048C8.91352 5.3797 9.30397 5.70013 9.57867 6.11126C9.85338 6.52238 10 7.00573 10 7.50018C10 8.16322 9.73661 8.79911 9.26777 9.26795C8.79893 9.73679 8.16304 10.0002 7.5 10.0002ZM12.5 10.6252C12.3764 10.6252 12.2555 10.5885 12.1528 10.5199C12.05 10.4512 11.9699 10.3536 11.9226 10.2394C11.8753 10.1252 11.8629 9.99949 11.887 9.87825C11.9111 9.75701 11.9706 9.64565 12.0581 9.55824C12.1455 9.47083 12.2568 9.41131 12.3781 9.38719C12.4993 9.36308 12.625 9.37545 12.7392 9.42276C12.8534 9.47006 12.951 9.55017 13.0197 9.65295C13.0883 9.75573 13.125 9.87657 13.125 10.0002C13.125 10.1659 13.0592 10.3249 12.9419 10.4421C12.8247 10.5593 12.6658 10.6252 12.5 10.6252ZM12.5 5.62518C12.3764 5.62518 12.2555 5.58853 12.1528 5.51985C12.05 5.45118 11.9699 5.35356 11.9226 5.23936C11.8753 5.12516 11.8629 4.99949 11.887 4.87825C11.9111 4.75701 11.9706 4.64565 12.0581 4.55824C12.1455 4.47083 12.2568 4.41131 12.3781 4.38719C12.4993 4.36308 12.625 4.37545 12.7392 4.42276C12.8534 4.47006 12.951 4.55017 13.0197 4.65295C13.0883 4.75573 13.125 4.87657 13.125 5.00018C13.125 5.16594 13.0592 5.32491 12.9419 5.44212C12.8247 5.55933 12.6658 5.62518 12.5 5.62518ZM8.75 7.50018C8.75 7.74741 8.67669 7.98908 8.53934 8.19465C8.40199 8.40021 8.20676 8.56042 7.97835 8.65503C7.74995 8.74964 7.49861 8.7744 7.25614 8.72616C7.01366 8.67793 6.79093 8.55888 6.61612 8.38407C6.4413 8.20925 6.32225 7.98652 6.27402 7.74405C6.22579 7.50157 6.25054 7.25024 6.34515 7.02183C6.43976 6.79342 6.59998 6.5982 6.80554 6.46085C7.0111 6.32349 7.25277 6.25018 7.5 6.25018C7.83152 6.25018 8.14946 6.38188 8.38388 6.6163C8.6183 6.85072 8.75 7.16866 8.75 7.50018Z" fill="#374957"/>
</g>
<defs>
<clipPath id="clip0_35_829">
<rect width="15" height="15" fill="white"/>
</clipPath>
</defs>
</svg>
