<svg width="15" height="15" viewBox="0 0 15 15" fill="none" xmlns="http://www.w3.org/2000/svg">
<g clip-path="url(#clip0_35_820)">
<path d="M7.5 5.62505C7.00544 5.6249 6.52196 5.77145 6.1107 6.04614C5.69945 6.32084 5.3789 6.71134 5.18963 7.16824C5.00035 7.62514 4.95084 8.12792 5.04736 8.61297C5.14388 9.09801 5.3821 9.54354 5.73188 9.89317L7.16125 11.2907C7.25212 11.3783 7.37344 11.4273 7.49969 11.4273C7.62594 11.4273 7.74726 11.3783 7.83813 11.2907L9.27563 9.88817C9.62414 9.53782 9.86101 9.09205 9.9563 8.60715C10.0516 8.12226 10.0011 7.62 9.81105 7.16382C9.62105 6.70763 9.30011 6.31799 8.88878 6.04412C8.47745 5.77024 7.99417 5.62441 7.5 5.62505ZM7.5 8.74504C7.37639 8.74504 7.25555 8.70839 7.15277 8.63971C7.04999 8.57104 6.96988 8.47343 6.92258 8.35922C6.87527 8.24502 6.86289 8.11935 6.88701 7.99811C6.91113 7.87688 6.97065 7.76551 7.05806 7.6781C7.14547 7.5907 7.25683 7.53117 7.37807 7.50705C7.49931 7.48294 7.62497 7.49532 7.73918 7.54262C7.85338 7.58993 7.95099 7.67003 8.01967 7.77281C8.08835 7.87559 8.125 7.99643 8.125 8.12004C8.125 8.28581 8.05915 8.44478 7.94194 8.56199C7.82473 8.6792 7.66576 8.74504 7.5 8.74504ZM13.625 3.48692L9.25 0.53442C8.73389 0.183419 8.12416 -0.00427246 7.5 -0.00427246C6.87584 -0.00427246 6.26611 0.183419 5.75 0.53442L1.375 3.48692C0.951346 3.77328 0.604436 4.15923 0.364703 4.61091C0.124971 5.06258 -0.000259012 5.56619 4.02212e-07 6.07755V11.875C0.000992813 12.7035 0.330552 13.4978 0.916388 14.0837C1.50222 14.6695 2.2965 14.9991 3.125 15H11.875C12.7035 14.9991 13.4978 14.6695 14.0836 14.0837C14.6695 13.4978 14.999 12.7035 15 11.875V6.07755C15.0003 5.56619 14.875 5.06258 14.6353 4.61091C14.3956 4.15923 14.0487 3.77328 13.625 3.48692ZM10.1519 10.7769L8.7125 12.1875C8.38729 12.5022 7.95251 12.6781 7.5 12.6781C7.04749 12.6781 6.61271 12.5022 6.2875 12.1875L4.85 10.7844C4.1461 10.0818 3.75016 9.12826 3.74928 8.13367C3.7484 7.13908 4.14266 6.18488 4.84531 5.48098C5.54797 4.77708 6.50147 4.38114 7.49606 4.38026C8.49065 4.37938 9.44485 4.77364 10.1488 5.4763C10.8504 6.17968 11.2447 7.13246 11.2453 8.12596C11.2458 9.11946 10.8527 10.0727 10.1519 10.7769Z" fill="#374957"/>
</g>
<defs>
<clipPath id="clip0_35_820">
<rect width="15" height="15" fill="white"/>
</clipPath>
</defs>
</svg>
