<svg width="15" height="15" viewBox="0 0 15 15" fill="none" xmlns="http://www.w3.org/2000/svg">
<g clip-path="url(#clip0_35_826)">
<path d="M11.875 1.875H3.125C2.2965 1.87599 1.50222 2.20555 0.916387 2.79139C0.330551 3.37722 0.000992411 4.1715 0 5H15C14.999 4.1715 14.6694 3.37722 14.0836 2.79139C13.4978 2.20555 12.7035 1.87599 11.875 1.875Z" fill="#374957"/>
<path d="M0 9.9999C0.000992411 10.8284 0.330551 11.6227 0.916387 12.2085C1.50222 12.7943 2.2965 13.1239 3.125 13.1249H11.875C12.7035 13.1239 13.4978 12.7943 14.0836 12.2085C14.6694 11.6227 14.999 10.8284 15 9.9999V6.24991H0V9.9999ZM4.375 9.6874C4.375 9.87282 4.32002 10.0541 4.217 10.2082C4.11399 10.3624 3.96757 10.4826 3.79627 10.5535C3.62496 10.6245 3.43646 10.6431 3.2546 10.6069C3.07275 10.5707 2.9057 10.4814 2.77459 10.3503C2.64348 10.2192 2.55419 10.0522 2.51801 9.8703C2.48184 9.68844 2.50041 9.49994 2.57136 9.32864C2.64232 9.15733 2.76248 9.01092 2.91665 8.9079C3.07082 8.80489 3.25208 8.7499 3.4375 8.7499C3.68614 8.7499 3.9246 8.84868 4.10041 9.02449C4.27623 9.20031 4.375 9.43876 4.375 9.6874Z" fill="#374957"/>
</g>
<defs>
<clipPath id="clip0_35_826">
<rect width="15" height="15" fill="white"/>
</clipPath>
</defs>
</svg>
