<svg width="15" height="15" viewBox="0 0 15 15" fill="none" xmlns="http://www.w3.org/2000/svg">
<g clip-path="url(#clip0_35_856)">
<path d="M7.49998 0.0265503C5.8462 0.0283697 4.26066 0.686097 3.09119 1.85544C1.92173 3.02479 1.26385 4.61026 1.26186 6.26405C1.26186 7.8703 2.50561 10.3841 4.95873 13.7353C5.25077 14.1354 5.63315 14.4609 6.07474 14.6852C6.51633 14.9096 7.00466 15.0266 7.49998 15.0266C7.99531 15.0266 8.48364 14.9096 8.92523 14.6852C9.36682 14.4609 9.7492 14.1354 10.0412 13.7353C12.4944 10.3841 13.7381 7.8703 13.7381 6.26405C13.7361 4.61026 13.0782 3.02479 11.9088 1.85544C10.7393 0.686097 9.15377 0.0283697 7.49998 0.0265503ZM7.49998 8.7503C7.00553 8.7503 6.52218 8.60368 6.11106 8.32897C5.69994 8.05427 5.3795 7.66383 5.19029 7.20701C5.00107 6.75019 4.95156 6.24753 5.04802 5.76258C5.14448 5.27762 5.38259 4.83217 5.73222 4.48253C6.08185 4.1329 6.52731 3.8948 7.01226 3.79834C7.49721 3.70187 7.99988 3.75138 8.45669 3.9406C8.91351 4.12982 9.30396 4.45025 9.57866 4.86138C9.85336 5.2725 9.99998 5.75585 9.99998 6.2503C9.99998 6.91334 9.73659 7.54923 9.26775 8.01807C8.79891 8.48691 8.16303 8.7503 7.49998 8.7503Z" fill="#374957"/>
</g>
<defs>
<clipPath id="clip0_35_856">
<rect width="15" height="15" fill="white"/>
</clipPath>
</defs>
</svg>
