<svg width="17" height="16" viewBox="0 0 17 16" fill="none" xmlns="http://www.w3.org/2000/svg">
<g clip-path="url(#clip0_35_848)">
<path d="M2.246 1.136C-0.458998 3.589 1.98 8.154 5.162 11.336C8.343 14.517 12.915 16.962 15.368 14.257C15.538 14.069 15.826 13.657 16.23 13.024C16.3722 12.8003 16.4197 12.5292 16.3622 12.2705C16.3046 12.0117 16.1466 11.7864 15.923 11.644L13.487 10.244C13.2687 10.1189 13.0112 10.0808 12.766 10.1371C12.5208 10.1935 12.3058 10.3402 12.164 10.548C11.977 10.829 11.764 11.093 11.529 11.335C10.186 12.672 8.489 11.481 6.753 9.745C5.016 8.008 3.832 6.318 5.169 4.975C5.372 4.771 5.634 4.559 5.955 4.34C6.16308 4.19814 6.30997 3.98299 6.36632 3.73754C6.42268 3.4921 6.38435 3.23442 6.259 3.016L4.86 0.580002C4.71749 0.356528 4.49209 0.19877 4.23333 0.141393C3.97457 0.0840151 3.70362 0.131711 3.48 0.274002C2.846 0.678002 2.435 0.964002 2.246 1.136Z" fill="#374957"/>
</g>
<defs>
<clipPath id="clip0_35_848">
<rect width="16" height="16" fill="white" transform="translate(0.5)"/>
</clipPath>
</defs>
</svg>
