<svg width="48" height="49" viewBox="0 0 48 49" fill="none" xmlns="http://www.w3.org/2000/svg">
<path fill-rule="evenodd" clip-rule="evenodd" d="M0 24.7932C0 11.5384 10.7452 0.793213 24 0.793213C37.2548 0.793213 48 11.5384 48 24.7932C48 38.048 37.2548 48.7932 24 48.7932C10.7452 48.7932 0 38.048 0 24.7932ZM24.0012 11.9932C20.5249 11.9932 20.0886 12.0084 18.7233 12.0705C17.3606 12.1329 16.4305 12.3487 15.6166 12.6652C14.7747 12.9922 14.0606 13.4295 13.3491 14.1412C12.6371 14.8527 12.1997 15.5668 11.8717 16.4085C11.5544 17.2226 11.3384 18.153 11.2771 19.5152C11.216 20.8805 11.2 21.317 11.2 24.7933C11.2 28.2696 11.2155 28.7046 11.2773 30.0699C11.34 31.4326 11.5557 32.3628 11.872 33.1766C12.1992 34.0185 12.6365 34.7326 13.3483 35.4441C14.0595 36.1561 14.7736 36.5945 15.615 36.9215C16.4294 37.238 17.3598 37.4537 18.7222 37.5161C20.0876 37.5783 20.5236 37.5935 23.9996 37.5935C27.4762 37.5935 27.9111 37.5783 29.2765 37.5161C30.6391 37.4537 31.5703 37.238 32.3848 36.9215C33.2264 36.5945 33.9394 36.1561 34.6506 35.4441C35.3626 34.7326 35.8 34.0185 36.128 33.1769C36.4427 32.3628 36.6587 31.4324 36.7227 30.0702C36.784 28.7049 36.8 28.2696 36.8 24.7933C36.8 21.317 36.784 20.8808 36.7227 19.5154C36.6587 18.1527 36.4427 17.2226 36.128 16.4087C35.8 15.5669 35.3626 14.8527 34.6506 14.1412C33.9386 13.4292 33.2266 12.9919 32.384 12.6652C31.5679 12.3487 30.6373 12.1329 29.2746 12.0705C27.9092 12.0084 27.4746 11.9932 23.9972 11.9932H24.0012Z" fill="white"/>
<path fill-rule="evenodd" clip-rule="evenodd" d="M22.8529 14.2999C23.1937 14.2994 23.574 14.2999 24.0012 14.2999C27.4188 14.2999 27.8239 14.3122 29.1735 14.3735C30.4215 14.4306 31.0989 14.6391 31.5501 14.8143C32.1474 15.0463 32.5733 15.3236 33.021 15.7717C33.469 16.2197 33.7464 16.6463 33.9789 17.2437C34.1541 17.6943 34.3629 18.3717 34.4197 19.6197C34.481 20.969 34.4944 21.3744 34.4944 24.7904C34.4944 28.2064 34.481 28.6118 34.4197 29.9611C34.3626 31.2091 34.1541 31.8865 33.9789 32.3372C33.7469 32.9345 33.469 33.3598 33.021 33.8076C32.573 34.2556 32.1477 34.5329 31.5501 34.7649C31.0994 34.9409 30.4215 35.1489 29.1735 35.206C27.8242 35.2673 27.4188 35.2807 24.0012 35.2807C20.5833 35.2807 20.1782 35.2673 18.8289 35.206C17.5809 35.1484 16.9035 34.9398 16.4521 34.7646C15.8547 34.5326 15.428 34.2553 14.98 33.8073C14.532 33.3593 14.2547 32.9337 14.0222 32.3361C13.847 31.8854 13.6382 31.2081 13.5814 29.9601C13.52 28.6107 13.5078 28.2054 13.5078 24.7872C13.5078 21.369 13.52 20.9658 13.5814 19.6165C13.6384 18.3685 13.847 17.6911 14.0222 17.2399C14.2542 16.6426 14.532 16.2159 14.98 15.7679C15.428 15.3199 15.8547 15.0426 16.4521 14.81C16.9033 14.634 17.5809 14.426 18.8289 14.3687C20.0097 14.3154 20.4673 14.2994 22.8529 14.2967V14.2999ZM30.8338 16.4253C29.9858 16.4253 29.2978 17.1125 29.2978 17.9607C29.2978 18.8088 29.9858 19.4968 30.8338 19.4968C31.6818 19.4968 32.3698 18.8088 32.3698 17.9607C32.3698 17.1127 31.6818 16.4253 30.8338 16.4253ZM24.0012 18.2199C20.371 18.2199 17.4278 21.1632 17.4278 24.7933C17.4278 28.4235 20.371 31.3654 24.0012 31.3654C27.6314 31.3654 30.5735 28.4235 30.5735 24.7933C30.5735 21.1632 27.6314 18.2199 24.0012 18.2199Z" fill="white"/>
<path fill-rule="evenodd" clip-rule="evenodd" d="M24.0012 20.5266C26.3575 20.5266 28.2679 22.4368 28.2679 24.7933C28.2679 27.1496 26.3575 29.0601 24.0012 29.0601C21.6446 29.0601 19.7345 27.1496 19.7345 24.7933C19.7345 22.4368 21.6446 20.5266 24.0012 20.5266Z" fill="white"/>
</svg>
