<svg width="24" height="25" viewBox="0 0 24 25" fill="none" xmlns="http://www.w3.org/2000/svg">
<path fill-rule="evenodd" clip-rule="evenodd" d="M24 12.5C24 19.1274 18.6274 24.5 12 24.5C5.3726 24.5 0 19.1274 0 12.5C0 5.8726 5.3726 0.5 12 0.5C18.6274 0.5 24 5.8726 24 12.5ZM8.03575 11.4008C6.83365 11.9256 5.59855 12.4649 4.46913 13.087C3.87939 13.5188 4.66319 13.8243 5.39855 14.1108C5.51545 14.1563 5.6311 14.2014 5.73985 14.2464C5.83035 14.2742 5.92235 14.3035 6.0156 14.3332C6.83345 14.5938 7.74535 14.8843 8.53935 14.4473C9.84365 13.698 11.0745 12.8318 12.3045 11.9662C12.7074 11.6826 13.1103 11.3991 13.5156 11.1199C13.5346 11.1077 13.556 11.0938 13.5794 11.0786C13.9247 10.8548 14.7012 10.3514 14.4139 11.045C13.7347 11.7878 13.0072 12.4454 12.2757 13.1065C11.7827 13.5521 11.288 13.9993 10.805 14.4753C10.3843 14.817 9.94745 15.5044 10.4185 15.983C11.5035 16.7425 12.6054 17.4837 13.7066 18.2243C14.0649 18.4653 14.4233 18.7064 14.7809 18.948C15.387 19.4319 16.3343 19.0404 16.4675 18.2843C16.5268 17.9364 16.5863 17.5886 16.6458 17.2407C16.9746 15.3184 17.3034 13.3954 17.594 11.4668C17.6335 11.1642 17.6782 10.8617 17.723 10.559C17.8316 9.8255 17.9403 9.09105 17.9743 8.35355C17.8868 7.61755 16.9943 7.7794 16.4977 7.9449C13.9451 8.9162 11.418 9.9595 8.90095 11.0212C8.6158 11.1475 8.32675 11.2737 8.03575 11.4008Z" fill="white"/>
</svg>
