<svg width="48" height="49" viewBox="0 0 48 49" fill="none" xmlns="http://www.w3.org/2000/svg">
<path fill-rule="evenodd" clip-rule="evenodd" d="M48 24.7932C48 38.048 37.2548 48.7932 24 48.7932C10.7452 48.7932 0 38.048 0 24.7932C0 11.5384 10.7452 0.793213 24 0.793213C37.2548 0.793213 48 11.5384 48 24.7932ZM16.0715 22.5947C13.6673 23.6444 11.1971 24.723 8.93825 25.9672C7.75877 26.8308 9.32638 27.4417 10.7971 28.0147C11.0309 28.1058 11.2622 28.1959 11.4797 28.2859C11.6607 28.3416 11.8447 28.4002 12.0312 28.4596C13.6669 28.9807 15.4907 29.5618 17.0787 28.6877C19.6873 27.1892 22.149 25.4568 24.6089 23.7257C25.4148 23.1585 26.2205 22.5915 27.0311 22.0329C27.0691 22.0086 27.1119 21.9808 27.1588 21.9505C27.8493 21.5028 29.4024 20.4961 28.8279 21.8833C27.4695 23.3689 26.0144 24.6839 24.5515 26.0062C23.5655 26.8973 22.5759 27.7917 21.6099 28.7437C20.7686 29.4273 19.8949 30.802 20.837 31.7593C23.0069 33.2783 25.2107 34.7605 27.4132 36.2419C28.1299 36.7239 28.8466 37.2059 29.5618 37.6891C30.774 38.6569 32.6685 37.874 32.935 36.3617C33.0535 35.666 33.1725 34.9704 33.2915 34.2747C33.9491 30.43 34.6069 26.5839 35.188 22.7267C35.267 22.1216 35.3565 21.5166 35.4461 20.9113C35.6632 19.4442 35.8806 17.9753 35.9485 16.5003C35.7735 15.0283 33.9887 15.352 32.9955 15.683C27.8903 17.6256 22.8361 19.7122 17.8019 21.8356C17.2316 22.0882 16.6535 22.3406 16.0715 22.5947Z" fill="white"/>
</svg>
