<svg width="48" height="49" viewBox="0 0 48 49" fill="none" xmlns="http://www.w3.org/2000/svg">
<path fill-rule="evenodd" clip-rule="evenodd" d="M14.4706 38.1163C15.4211 38.6178 16.4797 38.8796 17.5543 38.8792C21.1338 38.8792 24.0559 36.0319 24.1878 32.4832L24.201 0.793213H32.1076C32.1083 1.4663 32.1709 2.13789 32.2945 2.79953H26.5053V2.80063H34.4129C34.4118 5.45284 35.3731 8.01537 37.1185 10.0124L37.1207 10.0149C38.9011 11.178 40.9821 11.7964 43.1088 11.7944V13.5554C43.8531 13.7148 44.6227 13.7997 45.4142 13.7997V21.7084C41.4667 21.713 37.6179 20.4753 34.413 18.1707V34.24C34.413 42.2641 27.8839 48.7932 19.8586 48.7932C17.8601 48.7937 15.883 48.3814 14.0512 47.5821C12.2207 46.7835 10.5749 45.6156 9.21653 44.1516L9.21355 44.1495C5.46035 41.5144 3 37.1565 3 32.2336C3 24.2083 9.52906 17.6782 17.5543 17.6782C18.2106 17.6813 18.8658 17.7291 19.5156 17.8211V19.6933C19.5613 19.6924 19.6067 19.6908 19.6523 19.6893C19.7207 19.6869 19.7893 19.6845 19.8586 19.6845C20.5148 19.6876 21.1701 19.7354 21.8198 19.8274V27.9C21.1998 27.7054 20.5435 27.5921 19.8586 27.5921C18.0962 27.5942 16.4066 28.2953 15.1605 29.5416C13.9144 30.7879 13.2136 32.4776 13.2119 34.2399C13.212 35.6319 13.6519 36.9883 14.4689 38.1154L14.4706 38.1163ZM6.26428 39.4329C6.93975 41.1928 7.9478 42.7893 9.21034 44.1461C7.9221 42.7675 6.92735 41.1642 6.26428 39.4329Z" fill="white"/>
</svg>
