<svg width="48" height="49" viewBox="0 0 48 49" fill="none" xmlns="http://www.w3.org/2000/svg">
<path fill-rule="evenodd" clip-rule="evenodd" d="M0 24.7932C0 11.5384 10.7452 0.793213 24 0.793213C37.2548 0.793213 48 11.5384 48 24.7932C48 38.048 37.2548 48.7932 24 48.7932C10.7452 48.7932 0 38.048 0 24.7932ZM36.265 18.8664C35.9706 17.7354 35.1031 16.8448 34.0016 16.5425C32.0054 15.9932 24 15.9932 24 15.9932C24 15.9932 15.9946 15.9932 13.9983 16.5425C12.8967 16.8448 12.0292 17.7354 11.7348 18.8664C11.2 20.9163 11.2 25.1932 11.2 25.1932C11.2 25.1932 11.2 29.47 11.7348 31.52C12.0292 32.651 12.8967 33.5416 13.9983 33.844C15.9946 34.3932 24 34.3932 24 34.3932C24 34.3932 32.0054 34.3932 34.0016 33.844C35.1031 33.5416 35.9706 32.651 36.265 31.52C36.8 29.47 36.8 25.1932 36.8 25.1932C36.8 25.1932 36.8 20.9163 36.265 18.8664Z" fill="white"/>
<path fill-rule="evenodd" clip-rule="evenodd" d="M21.5996 29.5933V21.5933L27.9996 25.5934L21.5996 29.5933Z" fill="white"/>
</svg>
