<svg width="160" height="20" viewBox="0 0 160 20" fill="none" xmlns="http://www.w3.org/2000/svg">
<g clip-path="url(#clip0_35_1518)">
<path d="M1.10563 10.3336L4.07229 12.5002L2.94563 15.9894C2.76355 16.5306 2.76125 17.1161 2.93905 17.6587C3.11686 18.2012 3.46525 18.6718 3.93229 19.0002C4.39134 19.3392 4.94762 19.5208 5.51826 19.518C6.08889 19.5151 6.64333 19.328 7.09896 18.9844L9.9998 16.8494L12.9015 18.9819C13.3597 19.319 13.913 19.502 14.4818 19.5048C15.0506 19.5076 15.6056 19.3299 16.0671 18.9973C16.5286 18.6648 16.8727 18.1945 17.05 17.654C17.2274 17.1135 17.2287 16.5307 17.054 15.9894L15.9273 12.5002L18.894 10.3336C19.3516 9.999 19.6918 9.52837 19.8659 8.98891C20.0401 8.44944 20.0393 7.86873 19.8637 7.32974C19.6881 6.79074 19.3467 6.32102 18.8881 5.98767C18.4296 5.65432 17.8775 5.47439 17.3106 5.47358H13.6665L12.5606 2.02691C12.3867 1.48438 12.045 1.01109 11.5848 0.675301C11.1245 0.339511 10.5695 0.158569 9.9998 0.158569C9.43007 0.158569 8.87507 0.339511 8.41482 0.675301C7.95457 1.01109 7.61286 1.48438 7.43896 2.02691L6.33313 5.47358H2.69229C2.12541 5.47439 1.57329 5.65432 1.11478 5.98767C0.656268 6.32102 0.314829 6.79074 0.139229 7.32974C-0.0363704 7.86873 -0.0371476 8.44944 0.137008 8.98891C0.311164 9.52837 0.651345 9.999 1.10896 10.3336H1.10563Z" fill="#8FFF00"/>
</g>
<g clip-path="url(#clip1_35_1518)">
<path d="M36.1056 10.3336L39.0723 12.5002L37.9456 15.9894C37.7636 16.5306 37.7612 17.1161 37.9391 17.6587C38.1169 18.2012 38.4653 18.6718 38.9323 19.0002C39.3913 19.3392 39.9476 19.5208 40.5183 19.518C41.0889 19.5151 41.6433 19.328 42.099 18.9844L44.9998 16.8494L47.9015 18.9819C48.3597 19.319 48.913 19.502 49.4818 19.5048C50.0506 19.5076 50.6056 19.3299 51.0671 18.9973C51.5286 18.6648 51.8727 18.1945 52.05 17.654C52.2274 17.1135 52.2287 16.5307 52.054 15.9894L50.9273 12.5002L53.894 10.3336C54.3516 9.999 54.6918 9.52837 54.8659 8.98891C55.0401 8.44944 55.0393 7.86873 54.8637 7.32974C54.6881 6.79074 54.3467 6.32102 53.8881 5.98767C53.4296 5.65432 52.8775 5.47439 52.3106 5.47358H48.6665L47.5606 2.02691C47.3867 1.48438 47.045 1.01109 46.5848 0.675301C46.1245 0.339511 45.5695 0.158569 44.9998 0.158569C44.4301 0.158569 43.8751 0.339511 43.4148 0.675301C42.9546 1.01109 42.6129 1.48438 42.439 2.02691L41.3331 5.47358H37.6923C37.1254 5.47439 36.5733 5.65432 36.1148 5.98767C35.6563 6.32102 35.3148 6.79074 35.1392 7.32974C34.9636 7.86873 34.9629 8.44944 35.137 8.98891C35.3112 9.52837 35.6513 9.999 36.109 10.3336H36.1056Z" fill="#70FF00"/>
</g>
<g clip-path="url(#clip2_35_1518)">
<path d="M71.1056 10.3336L74.0723 12.5002L72.9456 15.9894C72.7636 16.5306 72.7612 17.1161 72.9391 17.6587C73.1169 18.2012 73.4653 18.6718 73.9323 19.0002C74.3913 19.3392 74.9476 19.5208 75.5183 19.518C76.0889 19.5151 76.6433 19.328 77.099 18.9844L79.9998 16.8494L82.9015 18.9819C83.3597 19.319 83.913 19.502 84.4818 19.5048C85.0506 19.5076 85.6056 19.3299 86.0671 18.9973C86.5286 18.6648 86.8727 18.1945 87.05 17.654C87.2274 17.1135 87.2287 16.5307 87.054 15.9894L85.9273 12.5002L88.894 10.3336C89.3516 9.999 89.6918 9.52837 89.8659 8.98891C90.0401 8.44944 90.0393 7.86873 89.8637 7.32974C89.6881 6.79074 89.3467 6.32102 88.8881 5.98767C88.4296 5.65432 87.8775 5.47439 87.3106 5.47358H83.6665L82.5606 2.02691C82.3867 1.48438 82.045 1.01109 81.5848 0.675301C81.1245 0.339511 80.5695 0.158569 79.9998 0.158569C79.4301 0.158569 78.8751 0.339511 78.4148 0.675301C77.9546 1.01109 77.6129 1.48438 77.439 2.02691L76.3331 5.47358H72.6923C72.1254 5.47439 71.5733 5.65432 71.1148 5.98767C70.6563 6.32102 70.3148 6.79074 70.1392 7.32974C69.9636 7.86873 69.9629 8.44944 70.137 8.98891C70.3112 9.52837 70.6513 9.999 71.109 10.3336H71.1056Z" fill="#F0F6FA"/>
</g>
<g clip-path="url(#clip3_35_1518)">
<path d="M106.106 10.3336L109.072 12.5002L107.946 15.9894C107.764 16.5306 107.761 17.1161 107.939 17.6587C108.117 18.2012 108.465 18.6718 108.932 19.0002C109.391 19.3392 109.948 19.5208 110.518 19.518C111.089 19.5151 111.643 19.328 112.099 18.9844L115 16.8494L117.901 18.9819C118.36 19.319 118.913 19.502 119.482 19.5048C120.051 19.5076 120.606 19.3299 121.067 18.9973C121.529 18.6648 121.873 18.1945 122.05 17.654C122.227 17.1135 122.229 16.5307 122.054 15.9894L120.927 12.5002L123.894 10.3336C124.352 9.999 124.692 9.52837 124.866 8.98891C125.04 8.44944 125.039 7.86873 124.864 7.32974C124.688 6.79074 124.347 6.32102 123.888 5.98767C123.43 5.65432 122.878 5.47439 122.311 5.47358H118.666L117.561 2.02691C117.387 1.48438 117.045 1.01109 116.585 0.675301C116.125 0.339511 115.57 0.158569 115 0.158569C114.43 0.158569 113.875 0.339511 113.415 0.675301C112.955 1.01109 112.613 1.48438 112.439 2.02691L111.333 5.47358H107.692C107.125 5.47439 106.573 5.65432 106.115 5.98767C105.656 6.32102 105.315 6.79074 105.139 7.32974C104.964 7.86873 104.963 8.44944 105.137 8.98891C105.311 9.52837 105.651 9.999 106.109 10.3336H106.106Z" fill="#F0F6FA"/>
</g>
<g clip-path="url(#clip4_35_1518)">
<path d="M141.106 10.3336L144.072 12.5002L142.946 15.9894C142.764 16.5306 142.761 17.1161 142.939 17.6587C143.117 18.2012 143.465 18.6718 143.932 19.0002C144.391 19.3392 144.948 19.5208 145.518 19.518C146.089 19.5151 146.643 19.328 147.099 18.9844L150 16.8494L152.901 18.9819C153.36 19.319 153.913 19.502 154.482 19.5048C155.051 19.5076 155.606 19.3299 156.067 18.9973C156.529 18.6648 156.873 18.1945 157.05 17.654C157.227 17.1135 157.229 16.5307 157.054 15.9894L155.927 12.5002L158.894 10.3336C159.352 9.999 159.692 9.52837 159.866 8.98891C160.04 8.44944 160.039 7.86873 159.864 7.32974C159.688 6.79074 159.347 6.32102 158.888 5.98767C158.43 5.65432 157.878 5.47439 157.311 5.47358H153.666L152.561 2.02691C152.387 1.48438 152.045 1.01109 151.585 0.675301C151.125 0.339511 150.57 0.158569 150 0.158569C149.43 0.158569 148.875 0.339511 148.415 0.675301C147.955 1.01109 147.613 1.48438 147.439 2.02691L146.333 5.47358H142.692C142.125 5.47439 141.573 5.65432 141.115 5.98767C140.656 6.32102 140.315 6.79074 140.139 7.32974C139.964 7.86873 139.963 8.44944 140.137 8.98891C140.311 9.52837 140.651 9.999 141.109 10.3336H141.106Z" fill="#F0F6FA"/>
</g>
<defs>
<clipPath id="clip0_35_1518">
<rect width="20" height="20" fill="white"/>
</clipPath>
<clipPath id="clip1_35_1518">
<rect width="20" height="20" fill="white" transform="translate(35)"/>
</clipPath>
<clipPath id="clip2_35_1518">
<rect width="20" height="20" fill="white" transform="translate(70)"/>
</clipPath>
<clipPath id="clip3_35_1518">
<rect width="20" height="20" fill="white" transform="translate(105)"/>
</clipPath>
<clipPath id="clip4_35_1518">
<rect width="20" height="20" fill="white" transform="translate(140)"/>
</clipPath>
</defs>
</svg>
