<svg width="24" height="24" viewBox="0 0 24 24" fill="none" xmlns="http://www.w3.org/2000/svg">
<path d="M21 16.6113H17" stroke="#7A7680" stroke-width="1.5" stroke-linecap="round" stroke-linejoin="round"/>
<path d="M11 16.6113H3" stroke="#7A7680" stroke-width="1.5" stroke-linecap="round" stroke-linejoin="round"/>
<path d="M16.1213 14.6382C17.2929 15.728 17.2929 17.4946 16.1213 18.5844C14.9496 19.6743 13.0504 19.6743 11.8787 18.5844C10.7071 17.4946 10.7071 15.728 11.8787 14.6382C13.0504 13.5483 14.9496 13.5483 16.1213 14.6382" stroke="#7A7680" stroke-width="1.5" stroke-linecap="round" stroke-linejoin="round"/>
<path d="M3 7.30963H7" stroke="#7A7680" stroke-width="1.5" stroke-linecap="round" stroke-linejoin="round"/>
<path d="M12.1213 5.3365C13.2929 6.42633 13.2929 8.19294 12.1213 9.28276C10.9496 10.3726 9.05038 10.3726 7.87873 9.28276C6.70709 8.19294 6.70709 6.42633 7.87873 5.3365C9.05038 4.24668 10.9496 4.24668 12.1213 5.3365" stroke="#7A7680" stroke-width="1.5" stroke-linecap="round" stroke-linejoin="round"/>
<path d="M13 7.30963H21" stroke="#7A7680" stroke-width="1.5" stroke-linecap="round" stroke-linejoin="round"/>
</svg>
