<svg width="13" height="14" viewBox="0 0 13 14" fill="none" xmlns="http://www.w3.org/2000/svg">
<g clip-path="url(#clip0_26_5)">
<path d="M6.5 0.522949C5.06672 0.524526 3.69259 1.09456 2.67905 2.10799C1.66552 3.12142 1.09535 4.4955 1.09363 5.92878C1.09363 7.32087 2.17154 9.49945 4.29759 12.4039C4.55069 12.7506 4.88208 13.0327 5.26479 13.2271C5.6475 13.4216 6.07072 13.523 6.5 13.523C6.92929 13.523 7.35251 13.4216 7.73522 13.2271C8.11793 13.0327 8.44932 12.7506 8.70242 12.4039C10.8285 9.49945 11.9064 7.32087 11.9064 5.92878C11.9047 4.4955 11.3345 3.12142 10.321 2.10799C9.30742 1.09456 7.93329 0.524526 6.5 0.522949ZM6.5 8.08353C6.07148 8.08353 5.65257 7.95646 5.29627 7.71838C4.93996 7.48031 4.66225 7.14192 4.49826 6.74601C4.33427 6.35011 4.29137 5.91446 4.37497 5.49417C4.45857 5.07388 4.66492 4.68782 4.96794 4.3848C5.27095 4.08179 5.65702 3.87543 6.07731 3.79183C6.4976 3.70823 6.93324 3.75114 7.32915 3.91513C7.72506 4.07912 8.06344 4.35682 8.30152 4.71313C8.5396 5.06944 8.66667 5.48834 8.66667 5.91687C8.66667 6.4915 8.4384 7.0426 8.03207 7.44893C7.62574 7.85526 7.07464 8.08353 6.5 8.08353Z" fill="#374957"/>
</g>
<defs>
<clipPath id="clip0_26_5">
<rect width="13" height="13" fill="white" transform="translate(0 0.5)"/>
</clipPath>
</defs>
</svg>
