<svg width="20" height="20" viewBox="0 0 20 20" fill="none" xmlns="http://www.w3.org/2000/svg">
<path fill-rule="evenodd" clip-rule="evenodd" d="M13.01 11.5381C13.918 10.2608 14.3129 8.68901 14.1167 7.13422C13.9204 5.57943 13.1472 4.1551 11.9503 3.14351C10.7534 2.13192 9.22011 1.60689 7.65435 1.67247C6.08859 1.73805 4.6046 2.38945 3.49647 3.49758C2.38833 4.60571 1.73694 6.0897 1.67136 7.65546C1.60578 9.22122 2.13081 10.7545 3.1424 11.9514C4.15399 13.1483 5.57831 13.9215 7.13311 14.1178C8.6879 14.3141 10.2597 13.9191 11.537 13.0111C11.5429 13.0169 11.5489 13.0226 11.555 13.0281L15.61 17.0831C15.7057 17.1845 15.8207 17.2656 15.9483 17.3217C16.0758 17.3778 16.2134 17.4077 16.3527 17.4097C16.4921 17.4117 16.6304 17.3858 16.7595 17.3333C16.8887 17.2809 17.006 17.2032 17.1045 17.1046C17.2031 17.0061 17.2808 16.8888 17.3332 16.7596C17.3856 16.6305 17.4116 16.4922 17.4096 16.3528C17.4076 16.2135 17.3777 16.0759 17.3216 15.9484C17.2655 15.8208 17.1843 15.7058 17.083 15.6101L13.028 11.5551C13.0224 11.5494 13.0157 11.5437 13.01 11.5381ZM7.916 12.2131C8.48574 12.2218 9.05152 12.1171 9.58041 11.9051C10.1093 11.6931 10.5907 11.378 10.9967 10.9781C11.4027 10.5783 11.7251 10.1017 11.9452 9.57613C12.1652 9.05054 12.2785 8.48642 12.2785 7.91661C12.2785 7.34681 12.1652 6.78269 11.9452 6.25709C11.7251 5.7315 11.4027 5.25492 10.9967 4.85509C10.5907 4.45526 10.1093 4.14017 9.58041 3.92815C9.05152 3.71613 8.48574 3.61142 7.916 3.62011C6.78785 3.63732 5.71173 4.09756 4.92002 4.90144C4.12832 5.70532 3.68455 6.78833 3.68455 7.91661C3.68455 9.0449 4.12832 10.1279 4.92002 10.9318C5.71173 11.7357 6.78785 12.1959 7.916 12.2131Z" fill="#7B92A4"/>
</svg>
