<svg width="40" height="34" viewBox="0 0 40 34" fill="none" xmlns="http://www.w3.org/2000/svg">
<path d="M38.9995 19.3664C38.9995 15.8687 36.164 13.0332 32.6663 13.0332H7.33326C3.8355 13.0332 1 15.8687 1 19.3664" stroke="#FF0000" stroke-width="2" stroke-linecap="round" stroke-linejoin="round"/>
<path d="M1 19.3665V29.4997C1 31.2486 2.41775 32.6664 4.16663 32.6664H7.30159C9.05047 32.6664 10.4682 31.2486 10.4682 29.4997V27.4066H29.5313V29.4997C29.5313 31.2486 30.9491 32.6664 32.698 32.6664H35.8329C37.5818 32.6664 38.9995 31.2486 38.9995 29.4997V19.3665" stroke="#FF0000" stroke-width="2" stroke-linecap="round" stroke-linejoin="round"/>
<path d="M12.8347 20.3164H8.10059" stroke="#FF0000" stroke-width="2" stroke-linecap="round" stroke-linejoin="round"/>
<path d="M31.9001 20.3164H27.166" stroke="#FF0000" stroke-width="2" stroke-linecap="round" stroke-linejoin="round"/>
<path d="M34.2656 12.8337L38.9997 10.4682" stroke="#FF0000" stroke-width="2" stroke-linecap="round" stroke-linejoin="round"/>
<path d="M5.74994 12.8337L1 10.4682" stroke="#FF0000" stroke-width="2" stroke-linecap="round" stroke-linejoin="round"/>
<path d="M12.2989 1.00003C10.1009 1.00558 8.19384 2.51842 7.68831 4.65749L5.68066 13.2391L7.68831 4.65749C8.19384 2.51842 10.1009 1.00558 12.2989 1.00003H27.7014C29.8994 1.00558 31.8065 2.51842 32.312 4.65749L34.3197 13.2391" stroke="#FF0000" stroke-width="2" stroke-linecap="round" stroke-linejoin="round"/>
</svg>
