<svg width="48" height="48" viewBox="0 0 48 48" fill="none" xmlns="http://www.w3.org/2000/svg">
<path d="M17.2197 13.9958H24.7789" stroke="#FF0000" stroke-width="2" stroke-linecap="round" stroke-linejoin="round"/>
<path d="M17.9976 24H11.9951V38.0058" stroke="#FF0000" stroke-width="2" stroke-linecap="round" stroke-linejoin="round"/>
<path d="M11.9955 38.0058H3.99219V15.1203C3.99219 13.7476 4.73669 12.4829 5.937 11.8169L19.1645 4.46788C20.3061 3.83352 21.6944 3.83352 22.836 4.46788L36.0635 11.8169C37.2628 12.4838 38.0064 13.7482 38.0064 15.1203V17.9975" stroke="#FF0000" stroke-width="2" stroke-linecap="round" stroke-linejoin="round"/>
<path d="M44.009 35.6048C44.009 33.3948 42.2174 31.6032 40.0074 31.6032H24.0007C21.7906 31.6032 19.999 33.3948 19.999 35.6048" stroke="#FF0000" stroke-width="2" stroke-linecap="round" stroke-linejoin="round"/>
<path d="M19.999 35.6048V42.0075C19.999 43.1125 20.8948 44.0083 21.9999 44.0083H23.9807C25.0857 44.0083 25.9815 43.1125 25.9815 42.0075V40.685H38.0265V42.0075C38.0265 43.1125 38.9223 44.0083 40.0274 44.0083H42.0082C43.1132 44.0083 44.009 43.1125 44.009 42.0075V35.6048" stroke="#FF0000" stroke-width="2" stroke-linecap="round" stroke-linejoin="round"/>
<path d="M27.4756 36.2051H24.4844" stroke="#FF0000" stroke-width="2" stroke-linecap="round" stroke-linejoin="round"/>
<path d="M39.5225 36.2051H36.5312" stroke="#FF0000" stroke-width="2" stroke-linecap="round" stroke-linejoin="round"/>
<path d="M41.0176 31.4771L44.0088 29.9825" stroke="#FF0000" stroke-width="2" stroke-linecap="round" stroke-linejoin="round"/>
<path d="M23.0003 31.4771L19.999 29.9825" stroke="#FF0000" stroke-width="2" stroke-linecap="round" stroke-linejoin="round"/>
<path d="M27.1378 24C25.749 24.0035 24.544 24.9594 24.2246 26.311L22.9561 31.7332L24.2246 26.311C24.544 24.9594 25.749 24.0035 27.1378 24H36.8699C38.2586 24.0035 39.4636 24.9594 39.7831 26.311L41.0516 31.7332" stroke="#FF0000" stroke-width="2" stroke-linecap="round" stroke-linejoin="round"/>
</svg>
