<svg width="48" height="48" viewBox="0 0 48 48" fill="none" xmlns="http://www.w3.org/2000/svg">
<path fill-rule="evenodd" clip-rule="evenodd" d="M7.73595 24.708L10.564 21.88C12.126 20.318 14.658 20.318 16.22 21.88L26.12 31.78C27.682 33.342 27.682 35.874 26.12 37.436L23.292 40.264C21.73 41.826 19.198 41.826 17.636 40.264L7.73595 30.364C6.17395 28.802 6.17395 26.27 7.73595 24.708V24.708Z" stroke="#FF0000" stroke-width="2" stroke-linecap="round" stroke-linejoin="round"/>
<path d="M9.14039 31.78L4.90039 36.02" stroke="#FF0000" stroke-width="2" stroke-linecap="round" stroke-linejoin="round"/>
<path d="M12.5195 43.62L16.7595 39.38" stroke="#FF0000" stroke-width="2" stroke-linecap="round" stroke-linejoin="round"/>
<path d="M33.1924 7.736L30.3644 4.908C29.5824 4.126 28.3164 4.126 27.5364 4.908L25.2944 7.15C24.9184 7.526 24.7084 8.034 24.7084 8.564V13.392L21.8804 16.22C21.0984 17.002 21.0984 18.268 21.8804 19.048L28.9524 26.12C29.7344 26.902 31.0004 26.902 31.7804 26.12L34.6084 23.292H39.4364C39.9664 23.292 40.4764 23.082 40.8504 22.706L43.0924 20.464C43.8744 19.682 43.8744 18.416 43.0924 17.636L40.2644 14.808" stroke="#FF0000" stroke-width="2" stroke-linecap="round" stroke-linejoin="round"/>
<path d="M30.5 19.5L28.5 17.5" stroke="#FF0000" stroke-width="2" stroke-linecap="round" stroke-linejoin="round"/>
<path d="M32 44V42" stroke="#FF0000" stroke-width="2" stroke-linecap="round" stroke-linejoin="round"/>
<path d="M44 32H42" stroke="#FF0000" stroke-width="2" stroke-linecap="round" stroke-linejoin="round"/>
<path d="M42 42L40 40" stroke="#FF0000" stroke-width="2" stroke-linecap="round" stroke-linejoin="round"/>
<path d="M16 4V6" stroke="#FF0000" stroke-width="2" stroke-linecap="round" stroke-linejoin="round"/>
<path d="M4 16H6" stroke="#FF0000" stroke-width="2" stroke-linecap="round" stroke-linejoin="round"/>
<path d="M6 6L8 8" stroke="#FF0000" stroke-width="2" stroke-linecap="round" stroke-linejoin="round"/>
<path d="M15 29L19 33" stroke="#FF0000" stroke-width="2" stroke-linecap="round" stroke-linejoin="round"/>
<path d="M43.0919 11.98L38.8499 16.222C38.0679 17.004 36.8019 17.004 36.0219 16.222L31.7779 11.98C30.9959 11.198 30.9959 9.932 31.7779 9.152L36.0199 4.91" stroke="#FF0000" stroke-width="2" stroke-linecap="round" stroke-linejoin="round"/>
</svg>
