<svg width="48" height="48" viewBox="0 0 48 48" fill="none" xmlns="http://www.w3.org/2000/svg">
<g clip-path="url(#clip0_301_8467)">
<path d="M15 26L24 44" stroke="#FF0000" stroke-width="2" stroke-linecap="round" stroke-linejoin="round"/>
<path fill-rule="evenodd" clip-rule="evenodd" d="M42.5781 22.946L34.9501 38.2C34.4761 39.15 33.3361 39.574 32.3721 39.132C29.6561 37.886 26.7261 37.282 23.7961 37.28C20.8661 37.282 17.9361 37.886 15.2201 39.132C14.2541 39.574 13.1141 39.15 12.6401 38.2L5.01411 22.946C4.53011 21.98 4.89011 20.774 5.85011 20.282C11.4701 17.4 17.6301 16.002 23.7941 16C29.9581 16.002 36.1181 17.4 41.7401 20.282C42.7021 20.776 43.0601 21.98 42.5781 22.946Z" stroke="#FF0000" stroke-width="2" stroke-linecap="round" stroke-linejoin="round"/>
<path d="M24.0001 9.99999C24.0001 9.66799 23.9701 9.33399 23.9101 9.00599" stroke="#FF0000" stroke-width="2" stroke-linecap="round" stroke-linejoin="round"/>
<path d="M24.0899 9.00599C24.0299 9.33399 23.9999 9.66799 23.9999 9.99999" stroke="#FF0000" stroke-width="2" stroke-linecap="round" stroke-linejoin="round"/>
<path d="M35.1743 5.75801C34.9263 5.53001 34.6623 5.32401 34.3863 5.14201" stroke="#FF0000" stroke-width="2" stroke-linecap="round" stroke-linejoin="round"/>
<path d="M28.7623 4.226C28.3983 4.32 28.0503 4.456 27.7103 4.62" stroke="#FF0000" stroke-width="2" stroke-linecap="round" stroke-linejoin="round"/>
<path d="M13.6137 5.14201C13.3377 5.32401 13.0737 5.53001 12.8257 5.75801" stroke="#FF0000" stroke-width="2" stroke-linecap="round" stroke-linejoin="round"/>
<path d="M19.2377 4.226C19.6017 4.32 19.9497 4.456 20.2897 4.62" stroke="#FF0000" stroke-width="2" stroke-linecap="round" stroke-linejoin="round"/>
<path d="M24 26V24" stroke="#FF0000" stroke-width="2" stroke-linecap="round" stroke-linejoin="round"/>
<path d="M24 16V18" stroke="#FF0000" stroke-width="2" stroke-linecap="round" stroke-linejoin="round"/>
</g>
<defs>
<clipPath id="clip0_301_8467">
<rect width="48" height="48" fill="white"/>
</clipPath>
</defs>
</svg>
